# xmcd CD database file
#
# Track frame offsets:
#	151
#	13545
#	26864
#	40864
#	53888
#	67985
#	80386
#	93540
#	108490
#	123517
#	139573
#	152771
#
# Disc length: 2188 seconds
#
# Revision: 0
# Processed by: cddbd v1.5.1PL0 Copyright (c) Steve Scherf et al.
# Submitted via: CDex 1.51
#
DISCID=98088a0c
DTITLE=Charles Mingus - Jazz History 1
DYEAR=2005
DGENRE=Jazz
TTITLE0=Shuffle Bass Boogie
TTITLE1=Ain't Jivin' Blues
TTITLE2=Weird Nightmare
TTITLE3=Baby, Take A Chance With Me
TTITLE4=Bedspread
TTITLE5=Make Believe
TTITLE6=This Subdues My Passion
TTITLE7=Pipe Dream
TTITLE8=These Foolish Things
TTITLE9=He's Gone
TTITLE10=Story Of Love
TTITLE11=Pennies From Heaven
EXTD=YEAR: 2005
EXTT0=
EXTT1=
EXTT2=
EXTT3=
EXTT4=
EXTT5=
EXTT6=
EXTT7=
EXTT8=
EXTT9=
EXTT10=
EXTT11=
PLAYORDER=
